<svg width="58" height="58" viewBox="0 0 58 58" fill="none" xmlns="http://www.w3.org/2000/svg">
<path fill-rule="evenodd" clip-rule="evenodd" d="M33.8132 41.4208L21.1038 23.9434L34.5681 40.8504C34.7229 41.0425 34.6817 41.3303 34.4755 41.4925C34.2702 41.6539 33.979 41.6283 33.825 41.437C33.8206 41.432 33.8166 41.4265 33.8132 41.4208Z" fill="#010202"/>
<path d="M33.8974 40.7293C34.6009 41.6276 35.2489 49.5158 35.2489 49.5158C35.2489 49.5158 39.8604 44.3003 40.9005 36.9867C41.9389 29.6731 40.5218 28.6954 39.2915 24.981C38.0612 21.2666 32.8707 16.478 30.2149 15.163C28.2996 14.2152 22.1667 12.0599 18.8444 10.9149C17.6477 10.505 16.2988 11.1813 15.8738 12.3972C13.9013 18.0483 13.5268 24.093 15.1535 29.6578C16.1187 32.9572 17.7782 36.0739 20.6166 37.6007C20.6166 37.6007 27.2275 40.8967 31.6295 40.0633C36.0298 39.2299 35.2203 47.6287 35.2203 47.6287" stroke="#010202" stroke-width="0.5" stroke-linecap="round" stroke-linejoin="round"/>
<path fill-rule="evenodd" clip-rule="evenodd" d="M28.9257 56.7743L25.5479 57.3652L22.4073 55.9717L18.9891 55.7249L16.2685 53.609L13.0068 52.539L10.8651 49.8237L7.95094 47.9938L6.51111 44.8378L4.1128 42.353L3.45978 38.9374L1.71785 35.9428L1.88867 32.4692L0.903259 29.1382L1.88783 25.8072L1.71785 22.3335L3.45978 19.3381L4.1128 15.9242L6.51111 13.4394L7.9501 10.2826L10.8651 8.45184L13.0068 5.73647L16.2685 4.6674L18.9891 2.55146L22.4073 2.30468L25.5479 0.911133L28.9257 1.50202L32.3035 0.911133L35.4441 2.30468L38.8623 2.55146L41.5829 4.6674L44.8446 5.73732L46.9863 8.45269L49.9005 10.2826L51.3403 13.4386L53.7386 15.9234L54.3916 19.3389L56.1335 22.3335L55.9627 25.8072L56.9481 29.1382L55.9636 32.4692L56.1335 35.9428L54.3916 38.9383L53.7386 42.3521L51.3403 44.8369L49.9013 47.9938L46.9863 49.8245L44.8446 52.5399L41.5829 53.609L38.8623 55.7249L35.4441 55.9717L32.3035 57.3652L28.9257 56.7743Z" stroke="black" stroke-width="0.5"/>
</svg>
