<svg width="57" height="58" viewBox="0 0 57 58" fill="none" xmlns="http://www.w3.org/2000/svg">
<path fill-rule="evenodd" clip-rule="evenodd" d="M36.5056 45.8648L47.4922 18.999L37.6241 46.296C37.5973 46.37 37.5563 46.438 37.5032 46.4961C37.4502 46.5543 37.3862 46.6014 37.315 46.6348C37.2437 46.6682 37.1666 46.6873 37.088 46.6909C37.0094 46.6945 36.9309 46.6826 36.8569 46.6558C36.7829 46.6291 36.7149 46.588 36.6567 46.535C36.5986 46.4819 36.5515 46.418 36.5181 46.3467C36.4847 46.2755 36.4656 46.1984 36.462 46.1198C36.4584 46.0411 36.4703 45.9626 36.4971 45.8886L36.5056 45.8648Z" fill="#010202"/>
<path d="M22.394 46.9342C22.394 46.9342 12.802 44.5612 9.38377 40.668C5.96749 36.773 0.457069 31.2664 0.932056 7.99961C0.932056 7.99961 4.54157 4.29681 23.7238 14.6475M37.2938 45.4465C36.7226 46.8714 38.5369 57.1898 38.5369 57.1898C38.5369 57.1898 31.1304 52.3476 27.4276 43.4209C23.7229 34.4942 25.1488 32.6904 25.4334 27.4674C25.717 22.2435 30.5259 14.0935 33.3625 11.3712C35.4062 9.40839 42.2483 4.25112 45.9625 1.48401C46.2788 1.24887 46.6396 1.08064 47.0231 0.989592C47.4065 0.898548 47.8045 0.8866 48.1927 0.954478C48.5809 1.02236 48.9512 1.16863 49.2809 1.38439C49.6107 1.60014 49.8931 1.88084 50.1108 2.20934C54.4152 8.64403 56.8767 16.2143 56.7159 23.955C56.6207 28.5459 55.6069 33.1749 52.6171 36.2371C52.6171 36.2371 45.5656 43.0411 39.8667 43.7055C34.1697 44.3699 37.9496 54.7701 37.9496 54.7701L37.2938 45.4465Z" stroke="#010202" stroke-width="0.5" stroke-linecap="round" stroke-linejoin="round"/>
<path fill-rule="evenodd" clip-rule="evenodd" d="M12.3451 18.3224C13.7547 19.7194 15.1013 21.1785 16.381 22.6953C17.0226 23.454 17.7032 24.1926 18.2096 25.0655C18.6741 25.9412 19.2224 26.8703 19.2071 27.9364C19.207 27.9459 19.2037 27.9552 19.1977 27.9626C19.1917 27.9701 19.1834 27.9753 19.1741 27.9775C19.1648 27.9797 19.1551 27.9787 19.1464 27.9747C19.1377 27.9707 19.1306 27.9639 19.1262 27.9554L19.1234 27.9478C18.6741 27.0711 18.0811 26.3201 17.4957 25.5395C16.916 24.759 16.402 23.9233 15.8404 23.1151C14.686 21.5124 13.4994 19.9333 12.2813 18.3786C12.2777 18.3742 12.2751 18.3691 12.2736 18.3637C12.272 18.3583 12.2716 18.3526 12.2723 18.347C12.273 18.3414 12.2749 18.336 12.2777 18.3311C12.2806 18.3262 12.2844 18.322 12.2889 18.3186C12.2971 18.3121 12.3073 18.309 12.3177 18.3097C12.3281 18.3104 12.3378 18.3149 12.3451 18.3224Z" fill="#010202"/>
</svg>
