<svg width="217" height="41" viewBox="0 0 217 41" fill="none" xmlns="http://www.w3.org/2000/svg">
<path d="M20.5 0.0438232L24.9903 13.8635H39.5211L27.7654 22.4045L32.2557 36.2242L20.5 27.6831L8.7443 36.2242L13.2346 22.4045L1.47887 13.8635H16.0097L20.5 0.0438232Z" fill="#DE9200"/>
<path d="M68.5146 14.0184L68.627 14.3632H81.9824L71.4717 21.9999L71.1777 22.2137L71.29 22.5594L75.3037 34.9139L64.7939 27.2782L64.5 27.0653L64.2061 27.2782L53.6953 34.9139L57.71 22.5594L57.8223 22.2137L57.5283 21.9999L47.0176 14.3632H60.373L60.4854 14.0184L64.5 1.66101L68.5146 14.0184Z" stroke="#DE9200"/>
<path d="M112.515 14.0184L112.627 14.3632H125.982L115.472 21.9999L115.178 22.2137L115.29 22.5594L119.304 34.9139L108.794 27.2782L108.5 27.0653L108.206 27.2782L97.6953 34.9139L101.71 22.5594L101.822 22.2137L101.528 21.9999L91.0176 14.3632H104.373L104.485 14.0184L108.5 1.66101L112.515 14.0184Z" stroke="#DE9200"/>
<path d="M156.515 14.0184L156.627 14.3632H169.982L159.472 21.9999L159.178 22.2137L159.29 22.5594L163.304 34.9139L152.794 27.2782L152.5 27.0653L152.206 27.2782L141.695 34.9139L145.71 22.5594L145.822 22.2137L145.528 21.9999L135.018 14.3632H148.373L148.485 14.0184L152.5 1.66101L156.515 14.0184Z" stroke="#DE9200"/>
<path d="M200.515 14.0184L200.627 14.3632H213.982L203.472 21.9999L203.178 22.2137L203.29 22.5594L207.304 34.9139L196.794 27.2782L196.5 27.0653L196.206 27.2782L185.695 34.9139L189.71 22.5594L189.822 22.2137L189.528 21.9999L179.018 14.3632H192.373L192.485 14.0184L196.5 1.66101L200.515 14.0184Z" stroke="#DE9200"/>
</svg>
