<svg width="217" height="41" viewBox="0 0 217 41" fill="none" xmlns="http://www.w3.org/2000/svg">
<path d="M20.5 0.0876465L24.9903 13.9073H39.5211L27.7654 22.4483L32.2557 36.268L20.5 27.727L8.7443 36.268L13.2346 22.4483L1.47887 13.9073H16.0097L20.5 0.0876465Z" fill="#DE9200"/>
<path d="M64.5 0.0876465L68.9903 13.9073H83.5211L71.7654 22.4483L76.2557 36.268L64.5 27.727L52.7443 36.268L57.2346 22.4483L45.4789 13.9073H60.0097L64.5 0.0876465Z" fill="#DE9200"/>
<path d="M112.515 14.0623L112.627 14.407H125.982L115.472 22.0437L115.178 22.2576L115.29 22.6033L119.304 34.9578L108.794 27.322L108.5 27.1091L108.206 27.322L97.6953 34.9578L101.71 22.6033L101.822 22.2576L101.528 22.0437L91.0176 14.407H104.373L104.485 14.0623L108.5 1.70483L112.515 14.0623Z" stroke="#DE9200"/>
<path d="M156.515 14.0623L156.627 14.407H169.982L159.472 22.0437L159.178 22.2576L159.29 22.6033L163.304 34.9578L152.794 27.322L152.5 27.1091L152.206 27.322L141.695 34.9578L145.71 22.6033L145.822 22.2576L145.528 22.0437L135.018 14.407H148.373L148.485 14.0623L152.5 1.70483L156.515 14.0623Z" stroke="#DE9200"/>
<path d="M200.515 14.0623L200.627 14.407H213.982L203.472 22.0437L203.178 22.2576L203.29 22.6033L207.304 34.9578L196.794 27.322L196.5 27.1091L196.206 27.322L185.695 34.9578L189.71 22.6033L189.822 22.2576L189.528 22.0437L179.018 14.407H192.373L192.485 14.0623L196.5 1.70483L200.515 14.0623Z" stroke="#DE9200"/>
</svg>
