<svg width="216" height="41" viewBox="0 0 216 41" fill="none" xmlns="http://www.w3.org/2000/svg">
<path d="M20 0.822266L24.4903 14.6419H39.0211L27.2654 23.1829L31.7557 37.0026L20 28.4616L8.2443 37.0026L12.7346 23.1829L0.97887 14.6419H15.5097L20 0.822266Z" fill="#DE9200"/>
<path d="M64 0.822266L68.4903 14.6419H83.0211L71.2654 23.1829L75.7557 37.0026L64 28.4616L52.2443 37.0026L56.7346 23.1829L44.9789 14.6419H59.5097L64 0.822266Z" fill="#DE9200"/>
<path d="M108 0.822266L112.49 14.6419H127.021L115.265 23.1829L119.756 37.0026L108 28.4616L96.2443 37.0026L100.735 23.1829L88.9789 14.6419H103.51L108 0.822266Z" fill="#DE9200"/>
<path d="M156.015 14.7969L156.127 15.1416H169.482L158.972 22.7783L158.678 22.9922L158.79 23.3379L162.804 35.6924L152.294 28.0566L152 27.8438L151.706 28.0566L141.195 35.6924L145.21 23.3379L145.322 22.9922L145.028 22.7783L134.518 15.1416H147.873L147.985 14.7969L152 2.43945L156.015 14.7969Z" stroke="#DE9200"/>
<path d="M200.015 14.7969L200.127 15.1416H213.482L202.972 22.7783L202.678 22.9922L202.79 23.3379L206.804 35.6924L196.294 28.0566L196 27.8438L195.706 28.0566L185.195 35.6924L189.21 23.3379L189.322 22.9922L189.028 22.7783L178.518 15.1416H191.873L191.985 14.7969L196 2.43945L200.015 14.7969Z" stroke="#DE9200"/>
</svg>
