<svg width="216" height="40" viewBox="0 0 216 40" fill="none" xmlns="http://www.w3.org/2000/svg">
<path d="M20 0L24.4903 13.8197H39.0211L27.2654 22.3607L31.7557 36.1803L20 27.6393L8.2443 36.1803L12.7346 22.3607L0.97887 13.8197H15.5097L20 0Z" fill="#DE9200"/>
<path d="M64 0L68.4903 13.8197H83.0211L71.2654 22.3607L75.7557 36.1803L64 27.6393L52.2443 36.1803L56.7346 22.3607L44.9789 13.8197H59.5097L64 0Z" fill="#DE9200"/>
<path d="M108 0L112.49 13.8197H127.021L115.265 22.3607L119.756 36.1803L108 27.6393L96.2443 36.1803L100.735 22.3607L88.9789 13.8197H103.51L108 0Z" fill="#DE9200"/>
<path d="M152 0L156.49 13.8197H171.021L159.265 22.3607L163.756 36.1803L152 27.6393L140.244 36.1803L144.735 22.3607L132.979 13.8197H147.51L152 0Z" fill="#DE9200"/>
<path d="M200.015 13.9746L200.127 14.3193H213.482L202.972 21.9561L202.678 22.1699L202.79 22.5156L206.804 34.8701L196.294 27.2344L196 27.0215L195.706 27.2344L185.195 34.8701L189.21 22.5156L189.322 22.1699L189.028 21.9561L178.518 14.3193H191.873L191.985 13.9746L196 1.61719L200.015 13.9746Z" stroke="#DE9200"/>
</svg>
