<svg width="24" height="25" viewBox="0 0 24 25" fill="none" xmlns="http://www.w3.org/2000/svg">
<g clip-path="url(#clip0_105_3596)">
<path fill-rule="evenodd" clip-rule="evenodd" d="M0.156959 3.67147C0.268144 3.56161 0.418152 3.5 0.574459 3.5C0.730766 3.5 0.880774 3.56161 0.991959 3.67147L9.82096 12.0995C9.87733 12.1498 9.92244 12.2114 9.95332 12.2803C9.98421 12.3493 10.0002 12.4239 10.0002 12.4995C10.0002 12.575 9.98421 12.6497 9.95332 12.7186C9.92244 12.7876 9.87733 12.8492 9.82096 12.8995L1.02096 21.3275C0.909504 21.4367 0.759997 21.4984 0.603959 21.4995C0.447836 21.4988 0.298177 21.437 0.186959 21.3275C0.130588 21.2772 0.085481 21.2156 0.0545959 21.1466C0.0237107 21.0777 0.00774466 21.003 0.00774466 20.9275C0.00774466 20.8519 0.0237107 20.7773 0.0545959 20.7083C0.085481 20.6394 0.130588 20.5778 0.186959 20.5275L8.53796 12.4985L0.154959 4.46947C0.0550187 4.36031 -0.000246539 4.21758 0.000123921 4.06958C0.00049438 3.92158 0.0564735 3.77913 0.156959 3.67047V3.67147ZM14.157 3.67147C14.2681 3.56161 14.4182 3.5 14.5745 3.5C14.7308 3.5 14.8808 3.56161 14.992 3.67147L23.821 12.0995C23.8773 12.1498 23.9224 12.2114 23.9533 12.2803C23.9842 12.3493 24.0002 12.4239 24.0002 12.4995C24.0002 12.575 23.9842 12.6497 23.9533 12.7186C23.9224 12.7876 23.8773 12.8492 23.821 12.8995L15.021 21.3275C14.9095 21.4367 14.76 21.4984 14.604 21.4995C14.4478 21.4988 14.2982 21.437 14.187 21.3275C14.1306 21.2772 14.0855 21.2156 14.0546 21.1466C14.0237 21.0777 14.0077 21.003 14.0077 20.9275C14.0077 20.8519 14.0237 20.7773 14.0546 20.7083C14.0855 20.6394 14.1306 20.5778 14.187 20.5275L22.538 12.4985L14.155 4.46947C14.055 4.36031 13.9998 4.21758 14.0001 4.06958C14.0005 3.92158 14.0565 3.77913 14.157 3.67047V3.67147Z" fill="black"/>
</g>
<defs>
<clipPath id="clip0_105_3596">
<rect width="24" height="24" fill="white" transform="translate(0 0.5)"/>
</clipPath>
</defs>
</svg>
