<svg width="17" height="18" viewBox="0 0 17 18" fill="none" xmlns="http://www.w3.org/2000/svg">
<g clip-path="url(#clip0_133_5540)">
<path d="M8.5 0.189941C6.24599 0.191001 4.08459 1.08687 2.49076 2.6807C0.896933 4.27453 0.00105996 6.43593 0 8.68994C0 13.3819 3.808 17.1899 8.5 17.1899C13.192 17.1899 17 13.3819 17 8.68994C17 3.99794 13.192 0.189941 8.5 0.189941ZM8.5 0.595941C12.975 0.595941 16.6 4.21494 16.6 8.68994C16.6 13.1649 12.975 16.7899 8.5 16.7899C7.43622 16.7902 6.38281 16.5809 5.39995 16.1739C4.4171 15.7669 3.52406 15.1703 2.77185 14.4181C2.01964 13.6659 1.42301 12.7728 1.01604 11.79C0.609071 10.8071 0.399737 9.75372 0.4 8.68994C0.399868 7.62648 0.609335 6.57342 1.01642 5.59096C1.42351 4.6085 2.02025 3.71591 2.77251 2.9642C3.52476 2.2125 4.4178 1.61643 5.40056 1.21007C6.38332 0.803708 7.43654 0.595022 8.5 0.595941ZM11.8 6.37994C11.7768 6.38615 11.7548 6.39629 11.735 6.40994L8.476 8.39694L8.452 8.40894C8.44786 8.41064 8.44384 8.41265 8.44 8.41494L8.434 8.42094L8.428 8.42694L8.422 8.43294L8.411 8.44494L8.405 8.44994L8.399 8.45594L8.393 8.46794L8.387 8.47394L8.381 8.47994V8.49194L8.375 8.49794L8.369 8.50994L8.363 8.52194V8.53894L8.357 8.54494V8.58094V14.5569C8.357 14.61 8.37807 14.6609 8.41558 14.6984C8.45309 14.7359 8.50396 14.7569 8.557 14.7569C8.61004 14.7569 8.66091 14.7359 8.69842 14.6984C8.73593 14.6609 8.757 14.61 8.757 14.5569V8.69294L11.944 6.74694C11.9867 6.72374 12.0195 6.68579 12.0362 6.64019C12.053 6.59458 12.0526 6.54444 12.035 6.49912C12.0175 6.4538 11.9841 6.41641 11.941 6.39393C11.898 6.37144 11.8482 6.36541 11.801 6.37694V6.37894L11.8 6.37994Z" fill="black"/>
</g>
<defs>
<clipPath id="clip0_133_5540">
<rect width="17" height="18" fill="white"/>
</clipPath>
</defs>
</svg>
