<svg width="25" height="24" viewBox="0 0 25 24" fill="none" xmlns="http://www.w3.org/2000/svg">
<path fill-rule="evenodd" clip-rule="evenodd" d="M21.0785 7.15653C21.1884 7.26772 21.25 7.41772 21.25 7.57403C21.25 7.73034 21.1884 7.88035 21.0785 7.99153L12.6505 16.8205C12.6002 16.8769 12.5386 16.922 12.4697 16.9529C12.4007 16.9838 12.3261 16.9997 12.2505 16.9997C12.175 16.9997 12.1003 16.9838 12.0314 16.9529C11.9624 16.922 11.9008 16.8769 11.8505 16.8205L3.42253 8.02053C3.31332 7.90908 3.25165 7.75957 3.25053 7.60353C3.25123 7.44741 3.31296 7.29775 3.42253 7.18653C3.47281 7.13016 3.53444 7.08505 3.60337 7.05417C3.67231 7.02328 3.74699 7.00732 3.82253 7.00732C3.89807 7.00732 3.97275 7.02328 4.04169 7.05417C4.11062 7.08505 4.17225 7.13016 4.22253 7.18653L12.2515 15.5375L20.2805 7.15453C20.3897 7.05459 20.5324 6.99933 20.6804 6.9997C20.8284 7.00007 20.9709 7.05605 21.0795 7.15653L21.0785 7.15653Z" fill="black"/>
</svg>
