<svg width="30" height="24" viewBox="0 0 30 24" fill="none" xmlns="http://www.w3.org/2000/svg">
<mask id="mask0_38862_5515" style="mask-type:alpha" maskUnits="userSpaceOnUse" x="0" y="5" width="27" height="18">
<path d="M0 5.44434H26.9619V22.9779H0V5.44434Z" fill="white"/>
</mask>
<g mask="url(#mask0_38862_5515)">
<path fill-rule="evenodd" clip-rule="evenodd" d="M0.0228814 16.8714C0.903814 18.2397 1.98839 19.5498 3.26059 20.5698C3.89746 21.082 4.58847 21.5225 5.33174 21.8374C6.07614 22.1377 6.87699 22.322 7.66792 22.4727C9.2578 22.7621 10.895 22.7837 12.4791 22.4794C14.0663 22.1901 15.5837 21.5807 17.0012 20.793C18.4153 19.9888 19.7394 19.0164 20.8964 17.8551C22.0626 16.7037 23.0579 15.3771 23.9648 13.9934C24.8453 12.5931 25.7431 11.1748 26.3605 9.6462C26.5023 9.26199 26.6362 8.86873 26.6781 8.4731C26.6968 8.27627 26.6945 8.08023 26.6476 7.90151C26.6 7.71885 26.4981 7.58855 26.354 7.42046C26.1343 7.11931 25.7564 6.91304 25.4246 6.68629C25.0814 6.46742 24.7302 6.2572 24.3767 6.05486L24.3751 6.05447L24.3587 6.04384C23.9709 5.78009 23.4381 5.68246 22.9431 5.69664C22.696 5.70766 22.4275 5.72695 22.206 5.80292C21.9728 5.88936 21.7543 6.01347 21.5588 6.1706C20.7557 6.81029 20.1295 7.69602 19.5834 8.58963L19.5872 8.58175L16.7842 14.4417C15.6798 16.3281 14.0308 17.8587 12.0836 18.7421C11.1068 19.178 10.0644 19.4363 9.00229 19.5058C7.94434 19.5579 6.88406 19.4888 5.84085 19.2999C3.7697 18.9129 1.7264 18.1024 0.0228814 16.8722V16.8714ZM0 16.845C1.77309 18.0415 3.76588 18.8481 5.8542 19.2148C6.89148 19.394 7.9467 19.4542 8.99619 19.3932C10.0434 19.3169 11.0699 19.0542 12.0303 18.6165C13.9408 17.7363 15.5616 16.1947 16.6256 14.3563L19.3935 8.48373L19.3977 8.47586C19.9545 7.55549 20.5715 6.66188 21.4189 5.97653C21.6338 5.80177 21.8746 5.66381 22.132 5.56791C22.4069 5.47501 22.6651 5.46083 22.9367 5.44548C23.474 5.43367 24.0231 5.50965 24.5139 5.83717L24.4968 5.82576C24.8564 6.02767 25.2113 6.23847 25.5611 6.45797C25.9017 6.6918 26.2766 6.878 26.5607 7.24528C26.6869 7.38739 26.8513 7.59367 26.9077 7.82278C26.9691 8.0511 26.9699 8.281 26.9508 8.50145C26.905 8.94352 26.7678 9.35253 26.624 9.7521C25.9959 11.335 25.1081 12.7545 24.2302 14.1756C23.3264 15.5802 22.3246 16.9363 21.1332 18.1079C19.9545 19.2916 18.6029 20.2848 17.166 21.1028C14.2989 22.7696 10.8488 23.3817 7.62597 22.7089C6.82093 22.5428 6.02657 22.3491 5.25623 22.0267C4.49657 21.6921 3.79716 21.2315 3.15877 20.7017C1.89232 19.6201 0.822678 18.3143 0 16.8454" fill="#231F20"/>
</g>
<mask id="mask1_38862_5515" style="mask-type:alpha" maskUnits="userSpaceOnUse" x="24" y="0" width="6" height="6">
<path d="M24.2321 0H29.8175V5.91668H24.2321V0Z" fill="white"/>
</mask>
<g mask="url(#mask1_38862_5515)">
<path fill-rule="evenodd" clip-rule="evenodd" d="M24.236 5.88766C24.7268 5.23222 25.2176 4.58741 25.6386 3.89851C26.0749 3.22969 26.4146 2.49197 26.8196 1.76646C27.0187 1.40508 27.2201 1.04449 27.4611 0.702798C27.5816 0.532738 27.709 0.365039 27.8722 0.21978C28.0301 0.0623165 28.278 -0.0156277 28.4858 0.00129962C28.9205 0.0131094 29.3164 0.284733 29.5269 0.650835C29.737 1.02166 29.8099 1.44681 29.8175 1.85936C29.8176 1.8617 29.8173 1.86405 29.8166 1.86626C29.8158 1.86848 29.8147 1.87051 29.8131 1.87224C29.8116 1.87397 29.8097 1.87536 29.8077 1.87633C29.8056 1.8773 29.8034 1.87782 29.8011 1.87787C29.7967 1.87788 29.7925 1.87617 29.7893 1.8731C29.7862 1.87003 29.7842 1.86582 29.7839 1.86133C29.7534 1.45311 29.6562 1.04292 29.4407 0.709096C29.2252 0.379211 28.858 0.165849 28.4843 0.178446C28.0938 0.149315 27.8672 0.506756 27.6434 0.834673C27.4271 1.17125 27.243 1.53538 27.0614 1.9003C26.7003 2.62188 26.4181 3.41982 25.9219 4.09928C25.4361 4.77007 24.8949 5.39599 24.26 5.91325C24.2582 5.91463 24.2561 5.91562 24.2539 5.91616C24.2517 5.91671 24.2494 5.9168 24.2472 5.91644C24.245 5.91607 24.2428 5.91525 24.2409 5.91403C24.239 5.91281 24.2373 5.91121 24.236 5.90931C24.2306 5.90302 24.2314 5.89396 24.236 5.88766Z" fill="#231F20"/>
</g>
<path fill-rule="evenodd" clip-rule="evenodd" d="M26.1694 7.07841C26.1755 6.4584 26.264 5.85177 26.3521 5.24514C26.4493 4.64009 26.6129 4.04842 26.7685 3.45676C26.9204 2.86316 27.0915 2.27497 27.2814 1.69317C27.3806 1.40344 27.4874 1.11489 27.6136 0.834996C27.7516 0.57282 27.8588 0.241754 28.1612 0.112241C28.1704 0.109485 28.1799 0.113028 28.1833 0.122082C28.186 0.129955 28.1833 0.139797 28.1749 0.14334L28.1673 0.14767C27.9156 0.27679 27.8188 0.610218 27.7082 0.876724C27.6052 1.16016 27.5213 1.45225 27.445 1.74631C27.2894 2.33352 27.1528 2.92591 27.0355 3.5225C26.9161 4.12007 26.8291 4.72355 26.6884 5.316C26.5393 5.90688 26.4036 6.50091 26.203 7.08392C26.2023 7.08619 26.2011 7.0883 26.1997 7.09012C26.1982 7.09193 26.1963 7.09342 26.1943 7.09449C26.1922 7.09555 26.1899 7.09618 26.1876 7.09632C26.1853 7.09647 26.183 7.09613 26.1808 7.09534C26.174 7.09337 26.1694 7.08549 26.1694 7.07841ZM18.9419 13.1211C19.3546 11.9172 19.8488 10.7422 20.4468 9.61514C20.75 9.05457 21.0623 8.48928 21.486 7.99996C21.9142 7.54371 22.4443 7.04849 23.1025 7.0229C23.1121 7.02212 23.1197 7.02999 23.1205 7.03983C23.1205 7.0477 23.114 7.05479 23.1071 7.05755C22.5286 7.27878 22.1232 7.7492 21.7468 8.22986C21.3796 8.72193 21.0146 9.22542 20.684 9.75882C20.0433 10.8367 19.4766 11.9712 18.9736 13.1337C18.9728 13.1359 18.9717 13.1379 18.9701 13.1396C18.9686 13.1413 18.9667 13.1427 18.9647 13.1436C18.9626 13.1446 18.9604 13.1451 18.9581 13.1452C18.9558 13.1452 18.9536 13.1448 18.9515 13.1439C18.9474 13.142 18.9442 13.1386 18.9424 13.1344C18.9407 13.1301 18.9405 13.1254 18.9419 13.1211Z" fill="#231F20"/>
</svg>
